PathFileType	4	(X/Y/Z)	/Users/mathieubourgeois/Desktop/Analyse/Traitement/Sujet_08/Data/Transformed_Sujet_08_velo_60.trc
DataRate	CameraRate	NumFrames	NumMarkers	Units	OrigDataRate	OrigDataStartFrame	OrigNumFrames
120.000000	120.000000	4	35	mm	120.000000	1632	1866
Frame#	Time	RFHD			RANE			STRN			LANI			LKNE			T10			RHUM			RWRB			C7			LFWT			LTOE			RTOE			LWRA			LBWT			RBWT			RFWT			LKNI			RKNI			RKNE			LANE			RANI			LHEE			LHUM			LRAD			RRAD			RWRA			LWRB			LFHD			LBHD			RBHD			RSHO			LSHO			CLAV			LCAR			RCAR			
		X1	Y1	Z1	X2	Y2	Z2	X3	Y3	Z3	X4	Y4	Z4	X5	Y5	Z5	X6	Y6	Z6	X7	Y7	Z7	X8	Y8	Z8	X9	Y9	Z9	X10	Y10	Z10	X11	Y11	Z11	X12	Y12	Z12	X13	Y13	Z13	X14	Y14	Z14	X15	Y15	Z15	X16	Y16	Z16	X17	Y17	Z17	X18	Y18	Z18	X19	Y19	Z19	X20	Y20	Z20	X21	Y21	Z21	X22	Y22	Z22	X23	Y23	Z23	X24	Y24	Z24	X25	Y25	Z25	X26	Y26	Z26	X27	Y27	Z27	X28	Y28	Z28	X29	Y29	Z29	X30	Y30	Z30	X31	Y31	Z31	X32	Y32	Z32	X33	Y33	Z33	X34	Y34	Z34	X35	Y35	Z35	

1633	13.6	229.6812591552734	1510.157348632812	73.00292968749993	-132.5635986328125	266.9752197265625	170.2679595947265	-40.04463958740234	1163.495361328125	3.832902908325119	-203.4416351318359	609.1639404296875	-67.5195388793946	46.65378952026369	920.6002197265625	-148.9555206298829	-199.5269927978516	1355.322021484375	15.42586994171132	151.7061614990234	1083.86865234375	195.3479919433593	330.5834960937499	908.7314453125	251.2166442871093	16.58744621276855	1436.914794921875	8.684724807739171	-262.1415100097656	1099.659790039062	-95.7838134765626	-113.0057373046875	449.1750793457031	-120.6368179321289	53.3135528564453	187.0276794433594	142.6238708496094	359.6628723144531	936.8154907226562	-172.7655792236328	-398.2905578613281	1156.4912109375	-23.09809303283703	-385.0748291015625	1150.604858398438	107.9606628417968	-227.1479644775391	1082.438232421875	132.8966674804687	25.33307838439942	858.6790771484375	-40.49797058105474	-79.44652557373048	618.9677124023438	82.06322479248041	-111.6071701049805	682.822998046875	187.4369049072265	-238.711669921875	622.14501953125	-149.2745361328126	-101.2283706665039	285.7959594726562	93.12681579589841	-289.0099487304688	624.3702392578125	-103.030860900879	133.15478515625	1080.008056640625	-180.4549865722657	188.705062866211	1110.745727539062	-229.7366790771485	191.8721771240234	1107.62744140625	242.1063537597656	361.2221069335938	929.6859741210938	187.4334564208984	323.416748046875	895.8302612304688	-223.4859924316407	233.6258850097656	1527.748168945312	-53.28897857666022	78.45680236816408	1546.188720703125	-65.89616394042977	65.39965820312499	1544.1865234375	70.89379119873038	71.29739379882811	1370.68408203125	127.0816040039062	56.65222549438478	1370.029052734375	-137.5739746093751	63.59757232666016	1304.7373046875	0.956410229206013	422.0629882812501	910.470947265625	-254.4021759033203	433.0627746582031	896.7518920898438	278.7696838378906	
1634	13.60833333333333	229.7288970947266	1510.465087890625	72.50585937499993	-140.5764617919922	263.9058227539062	170.4858398437499	-39.82436370849609	1163.538818359375	3.776239156722947	-194.2313385009766	613.757568359375	-68.53617858886726	48.36828231811526	928.5010375976562	-147.7686920166016	-199.4241027832031	1355.274047851562	15.49315261840809	151.8010864257812	1083.974731445312	195.3578643798828	330.5758056640624	908.7080078125	251.2705993652343	16.6323184967041	1437.025024414062	8.433021545410069	-262.4791564941406	1100.0615234375	-95.64385223388682	-103.831069946289	454.9975280761719	-120.5293045043946	44.52838134765624	181.9416198730469	142.6150360107422	359.6349487304688	936.848876953125	-172.7274475097656	-398.2840270996094	1156.66259765625	-22.78676223754895	-384.9916687011719	1150.612670898438	108.1983108520507	-227.0521545410157	1082.322265625	133.2176818847655	27.14107513427735	864.4267578125	-40.40779876708989	-86.67481994628908	614.9695434570312	81.57660675048822	-116.5431671142578	679.6300659179688	187.3045959472656	-232.3207855224609	625.7777709960938	-149.4844665527344	-109.0371780395508	282.4527893066406	93.27740478515622	-282.855224609375	627.0343627929688	-103.401466369629	133.0547332763672	1079.926513671875	-180.3765869140625	188.5031280517578	1110.635620117188	-229.783920288086	191.9196319580078	1107.68408203125	242.1470947265625	361.2353210449219	929.7125244140625	187.5056915283203	323.5406494140625	895.9398803710938	-224.6116333007813	233.5701293945312	1527.994140625	-53.81668853759772	78.33274841308595	1546.325927734375	-66.28617858886727	66.20426177978514	1544.54736328125	70.19216156005851	71.58970642089842	1370.806274414062	126.8039550781249	56.47111129760744	1370.025146484375	-137.8757934570313	63.70907974243164	1304.862182617188	0.697447896003651	421.9742736816407	910.6082763671875	-254.4724273681641	433.0640563964843	896.714111328125	278.8151550292969	
1635	13.61666666666667	229.7994384765625	1510.69384765625	71.96974945068352	-148.7765655517578	261.3539123535156	170.6692504882812	-39.58442687988281	1163.6142578125	3.727682113647385	-188.2696228027344	617.1251220703125	-68.78568267822273	49.70119476318362	935.9901123046875	-146.5131225585938	-199.3256072998047	1355.225952148438	15.54599857330311	151.8790893554687	1084.088745117188	195.3848724365234	330.5439758300781	908.6976928710938	251.3480834960937	16.66219329833984	1437.173950195312	8.188588142394932	-262.9202270507812	1100.443359375	-95.55532073974619	-94.30941772460936	460.4127197265625	-120.4297637939454	35.43365097045897	177.321044921875	142.6040344238281	359.5914916992188	936.8988037109375	-172.6572113037109	-398.3477478027344	1156.866333007812	-22.49048042297375	-384.9482727050781	1150.670776367188	108.4299850463866	-227.0386047363282	1082.236572265625	133.5426025390624	29.84382247924805	869.7841796875	-40.2828750610352	-92.15819549560548	612.1220703125	81.07733154296869	-121.1531372070313	676.8983154296875	187.1626434326171	-225.9273529052734	628.6491088867188	-149.6460571289063	-117.2005615234375	279.6086120605469	93.43849945068357	-276.6852416992188	628.97412109375	-103.8239822387696	132.9612426757813	1079.880249023438	-180.2775115966797	188.3324737548828	1110.550659179688	-229.7716827392578	191.9378662109375	1107.755615234375	242.2207489013672	361.2194213867188	929.74462890625	187.5858154296875	323.4952392578125	895.9671630859375	-224.5663146972657	233.4995727539062	1528.190185546875	-54.34047698974616	78.24649047851564	1546.471923828125	-66.63664245605477	66.29626464843749	1544.812255859375	69.85203552246085	71.78404998779295	1370.9521484375	126.5819778442382	56.07135009765626	1370.209716796875	-137.9063415527345	63.81390762329102	1305.015625	0.491277903318333	421.9275207519532	910.641845703125	-254.4342498779297	433.0158386230468	896.58203125	278.885009765625	
1636	13.625	229.8463287353516	1510.974243164062	71.53123474121087	-157.1442108154297	259.3587646484375	170.8207397460937	-39.40425109863281	1163.691650390625	3.710792303085251	-182.7701721191406	619.9598999023438	-68.9221496582032	50.72932052612307	943.0632934570312	-145.2380828857422	-199.2396240234375	1355.194213867188	15.58209037780751	151.9428253173828	1084.219604492188	195.3780212402343	330.4853515624999	908.704345703125	251.4486541748047	16.68923950195312	1437.3388671875	7.988523960113439	-263.454345703125	1100.859985351562	-95.47968292236338	-84.59254455566405	465.3756408691406	-120.2992401123047	26.25127220153807	173.1569519042969	142.5638732910156	359.5552673339844	936.934814453125	-172.5914154052734	-398.4490966796875	1157.123657226562	-22.18392181396496	-384.9367370605469	1150.797241210938	108.6203689575194	-227.0996551513672	1082.20458984375	133.8486022949218	31.66049575805664	876.4845581054688	-38.95279312133794	-98.09926605224611	609.4505004882812	80.31878662109369	-125.338119506836	674.5552368164062	186.9274902343749	-219.6615753173828	630.8359375	-149.7082824707032	-125.510482788086	277.252685546875	93.49181365966794	-271.1344299316406	629.8865966796875	-103.6027603149415	132.8577270507813	1079.860107421875	-180.111801147461	188.1815643310547	1110.50634765625	-229.7642059326172	191.9375	1107.835327148438	242.2866058349609	361.1666870117188	929.78271484375	187.6871032714844	323.4407958984375	895.9859008789062	-224.477767944336	233.4925994873047	1528.339721679688	-54.79190826416022	78.16994476318361	1546.645751953125	-66.94869995117196	65.6083297729492	1545.063232421875	69.92027282714835	72.1405792236328	1371.3828125	126.3205642700195	55.91191864013673	1370.274169921875	-138.1613769531251	63.87236785888672	1305.191650390625	0.3521090745925182	421.8624267578126	910.690185546875	-254.3839263916016	432.9643554687499	896.5513916015625	278.9574279785156	
